#!OML:ASF H:\Swim 2\Project 1\Capture day 1\Session 1\male.ASF
:FULLY-SPECIFIED
:DEGREES
1214
root 1.87497 14.8604 10.4011 106.011 17.0178 14.7763
lowerback -12.7847 1.08004 26.1947
upperback -9.74509 -1.20069 -15.6871
thorax -4.53274 -3.23102 -37.8332
lowerneck -12.5118 2.3291 3.73322
upperneck 29.7851 4.43927 -5.71502
head 12.0611 1.7538 -2.16371
rclavicle 3.51849e-014 1.54257e-013
rhumerus -67.4484 26.2907 -78.9593
rradius 41.4566
rwrist -24.7341
rhand 23.0883 0.77529
rfingers 7.12502
rthumb 47.4005 -21.7125
lclavicle 3.51849e-014 1.54257e-013
lhumerus -831.755 -199.359 887.701
lradius 35.9336
lwrist 59.7162
lhand -38.4195 -9.71649
lfingers 7.12502
lthumb -11.4439 19.9512
rfemur -51.5603 8.29626 13.887
rtibia 49.3954
rfoot 37.378 10.3322
rtoes 26.8655
lfemur -57.3655 6.25317 -29.9318
ltibia 46.0903
lfoot -17.4195 15.8902
ltoes -12.9105
1215
root 1.93012 14.872 10.4064 105.731 16.748 14.0664
lowerback -12.7256 1.16141 26.0285
upperback -9.79881 -1.04643 -15.7997
thorax -4.49835 -3.13664 -37.9058
lowerneck -12.0875 2.25109 3.94962
upperneck 28.9994 4.21545 -5.69596
head 11.6529 1.69015 -2.21524
rclavicle 2.18663e-014 2.88238e-015
rhumerus -65.763 26.2009 -75.1358
rradius 41.0142
rwrist -24.4186
rhand 24.4608 0.509541
rfingers 7.12502
rthumb 48.6656 -21.3866
lclavicle 2.18663e-014 2.88238e-015
lhumerus -832.102 -199.705 887.658
lradius 35.856
lwrist 60.0072
lhand -38.3492 -9.24392
lfingers 7.12502
lthumb -11.3761 20.4275
rfemur -51.0647 8.35273 13.9352
rtibia 50.5653
rfoot 38.4804 10.6317
rtoes 26.6332
lfemur -57.4939 5.42453 -29.3126
ltibia 44.1769
lfoot -17.6018 17.0542
ltoes -12.5214
1216
root 1.98344 14.8826 10.4084 105.431 16.4746 13.2662
lowerback -12.6529 1.25418 25.8223
upperback -9.85705 -0.868169 -15.9065
thorax -4.4542 -3.02141 -37.9203
lowerneck -11.6231 2.15223 4.17891
upperneck 28.151 3.96491 -5.68378
head 11.2187 1.61388 -2.27326
rclavicle 8.74653e-014 1.00784e-013
rhumerus -63.8389 25.8679 -70.9836
rradius 40.7618
rwrist -23.9292
rhand 25.4929 0.32525
rfingers 7.12502
rthumb 49.6134 -21.0982
lclavicle 8.74653e-014 1.00784e-013
lhumerus -832.453 -200.115 887.657
lradius 35.8155
lwrist 60.5231
lhand -38.2631 -8.69473
lfingers 7.12502
lthumb -11.293 20.9813
rfemur -50.6871 8.40981 13.972
rtibia 51.7241
rfoot 39.6861 10.8727
rtoes 26.3715
lfemur -57.537 4.27859 -28.2865
ltibia 42.5099
lfoot -17.7398 18.1247
ltoes -12.1115
1217
root 2.03418 14.8906 10.4073 105.084 16.1754 12.3543
lowerback -12.5527 1.35328 25.5509
upperback -9.91721 -0.668342 -16.0136
thorax -4.40626 -2.88616 -37.8679
lowerneck -11.1614 2.05623 4.41129
upperneck 27.3 3.72578 -5.67492
head 10.7932 1.53996 -2.33021
rclavicle 5.24792e-014 3.91606e-014
rhumerus -61.7084 25.2411 -66.5479
rradius 40.7334
rwrist -23.373
rhand 26.1792 0.159722
rfingers 7.12502
rthumb 50.2416 -20.9352
lclavicle 5.24792e-014 3.91606e-014
lhumerus -832.828 -200.581 887.672
lradius 35.8288
lwrist 61.3028
lhand -38.2102 -8.12695
lfingers 7.12502
lthumb -11.242 21.5518
rfemur -50.4156 8.48232 13.9762
rtibia 52.843
rfoot 41.0293 11.0911
rtoes 26.2643
lfemur -57.5044 2.959 -26.9837
ltibia 41.1508
lfoot -17.8298 19.0173
ltoes -11.8299
1218
root 2.08138 14.8946 10.402 104.711 15.8646 11.3304
lowerback -12.4396 1.46752 25.2266
upperback -9.98743 -0.438994 -16.1178
thorax -4.35091 -2.72741 -37.7496
lowerneck -10.7203 1.97111 4.62846
upperneck 26.4764 3.51143 -5.65936
head 10.3905 1.47356 -2.37819
rclavicle -3.37934e-014 6.53008e-014
rhumerus -59.4682 24.342 -61.9623
rradius 40.9671
rwrist -22.91
rhand 26.4558 0.0109906
rfingers 7.12502
rthumb 50.4942 -20.9483
lclavicle -3.37934e-014 6.53008e-014
lhumerus -833.216 -201.097 887.73
lradius 35.8943
lwrist 62.3058
lhand -38.2071 -7.57762
lfingers 7.12502
lthumb -11.239 22.1013
rfemur -50.2625 8.58325 13.9648
rtibia 53.875
rfoot 42.4382 11.3033
rtoes 26.3397
lfemur -57.4552 1.69848 -25.5944
ltibia 40.1445
lfoot -17.8456 19.5694
ltoes -11.8031
1219
root 2.12505 14.894 10.3927 104.306 15.534 10.1931
lowerback -12.309 1.59748 24.8499
upperback -10.0692 -0.179042 -16.2229
thorax -4.2931 -2.54656 -37.5747
lowerneck -10.3332 1.90588 4.81245
upperneck 25.7253 3.33623 -5.62822
head 10.0328 1.42031 -2.41027
rclavicle -1.15295e-014 -1.55847e-013
rhumerus -57.19 23.1834 -57.341
rradius 41.4767
rwrist -22.6823
rhand 26.3741 -0.156398
rfingers 7.12502
rthumb 50.4197 -21.156
lclavicle -1.15295e-014 -1.55847e-013
lhumerus -833.597 -201.652 887.864
lradius 36.0028
lwrist 63.4533
lhand -38.2872 -7.09071
lfingers 7.12502
lthumb -11.3163 22.584
rfemur -50.2067 8.7143 13.9374
rtibia 54.768
rfoot 43.8012 11.5143
rtoes 26.5722
lfemur -57.3911 0.713593 -24.3367
ltibia 39.5004
lfoot -17.7779 19.6515
ltoes -12.1486
1220
root 2.1655 14.8884 10.3797 103.861 15.1775 8.94779
lowerback -12.1529 1.73965 24.4315
upperback -10.16 0.105908 -16.3311
thorax -4.24108 -2.34998 -37.3608
lowerneck -9.9971 1.86021 4.95668
upperneck 25.0408 3.19588 -5.56945
head 9.71495 1.37962 -2.42213
rclavicle 7.95139e-016 -6.83819e-014
rhumerus -54.939 21.8154 -52.8192
rradius 42.2545
rwrist -22.7578
rhand 25.9418 -0.281621
rfingers 7.12502
rthumb 50.0244 -21.4915
lclavicle 7.95139e-016 -6.83819e-014
lhumerus -833.964 -202.237 888.08
lradius 36.1432
lwrist 64.6464
lhand -38.4598 -6.68635
lfingers 7.12502
lthumb -11.4827 22.9792
rfemur -50.2194 8.86708 13.9008
rtibia 55.4779
rfoot 44.9778 11.7045
rtoes 26.9124
lfemur -57.2892 0.125364 -23.3539
ltibia 39.2104
lfoot -17.6514 19.2381
ltoes -12.8543
1221
root 2.20362 14.8784 10.3634 103.393 14.7811 7.62
lowerback -11.9776 1.8923 23.9768
upperback -10.2631 0.410221 -16.4478
thorax -4.20105 -2.14409 -37.1269
lowerneck -9.70086 1.82828 5.05483
upperneck 24.4085 3.07754 -5.46508
head 9.42715 1.34761 -2.40827
rclavicle 3.10104e-014 1.1609e-013
rhumerus -52.7717 20.2896 -48.4996
rradius 43.2868
rwrist -23.1779
rhand 25.1887 -0.340881
rfingers 7.12502
rthumb 49.3344 -21.9062
lclavicle 3.10104e-014 1.1609e-013
lhumerus -834.284 -202.841 888.422
lradius 36.2964
lwrist 65.7586
lhand -38.706 -6.3927
lfingers 7.12502
lthumb -11.7202 23.2594
rfemur -50.2986 9.00663 13.8549
rtibia 55.9754
rfoot 45.8518 11.8606
rtoes 27.2628
lfemur -57.1349 -0.0871847 -22.6896
ltibia 39.2389
lfoot -17.5173 18.4275
ltoes -13.7673
1222
root 2.24042 14.8648 10.3436 102.934 14.3287 6.24828
lowerback -11.8024 2.05344 23.4923
upperback -10.3807 0.72524 -16.5778
thorax -4.17212 -1.93508 -36.8905
lowerneck -9.4275 1.8001 5.11822
upperneck 23.7997 2.96872 -5.33476
head 9.15498 1.31816 -2.379
rclavicle 3.10104e-014 -1.14898e-013
rhumerus -50.71 18.6417 -44.4316
rradius 44.5332
rwrist -23.8514
rhand 24.2194 -0.262522
rfingers 7.12502
rthumb 48.4435 -22.2657
lclavicle 3.10104e-014 -1.14898e-013
lhumerus -834.546 -203.455 888.891
lradius 36.4539
lwrist 66.7013
lhand -39.0055 -6.22073
lfingers 7.12502
lthumb -12.009 23.4147
rfemur -50.4567 9.08838 13.7916
rtibia 56.2484
rfoot 46.3332 11.9481
rtoes 27.485
lfemur -56.9337 -0.00814024 -22.3321
ltibia 39.5475
lfoot -17.4151 17.3835
ltoes -14.7209
1223
root 2.27737 14.8495 10.3212 102.501 13.807 4.8788
lowerback -11.6351 2.214 22.9896
upperback -10.507 1.03403 -16.724
thorax -4.1567 -1.73396 -36.6726
lowerneck -9.1609 1.77164 5.16096
upperneck 23.1881 2.86254 -5.18845
head 8.88575 1.28873 -2.34086
rclavicle -3.4191e-014 -4.09496e-014
rhumerus -48.7655 16.9238 -40.6516
rradius 45.9641
rwrist -24.6757
rhand 23.0812 -0.0142639
rfingers 7.12502
rthumb 47.3939 -22.505
lclavicle -3.4191e-014 -4.09496e-014
lhumerus -834.726 -204.068 889.532
lradius 36.6004
lwrist 67.3509
lhand -39.3327 -6.1531
lfingers 7.12502
lthumb -12.3245 23.4637
rfemur -50.6961 9.07007 13.7035
rtibia 56.2979
rfoot 46.4119 11.9421
rtoes 27.5297
lfemur -56.6733 0.266478 -22.2526
ltibia 40.0859
lfoot -17.3649 16.2757
ltoes -15.5442
1224
root 2.31467 14.8339 10.2954 102.141 13.2557 3.57055
lowerback -11.4952 2.37453 22.512
upperback -10.6454 1.33057 -16.8748
thorax -4.15345 -1.5471 -36.4878
lowerneck -8.89076 1.73938 5.18325
upperneck 22.5684 2.75614 -5.03349
head 8.61553 1.25757 -2.29678
rclavicle -6.59965e-014 -1.2106e-013
rhumerus -46.9436 15.1801 -37.1463
rradius 47.5474
rwrist -25.5727
rhand 21.8726 0.374796
rfingers 7.12502
rthumb 46.2754 -22.6042
lclavicle -6.59965e-014 -1.2106e-013
lhumerus -834.813 -204.664 890.348
lradius 36.7353
lwrist 67.6712
lhand -39.5143 -6.21341
lfingers 7.12502
lthumb -12.4995 23.3928
rfemur -51.0479 8.91989 13.638
rtibia 56.1282
rfoot 46.0859 11.8159
rtoes 27.273
lfemur -56.4012 0.669231 -22.3772
ltibia 40.816
lfoot -17.3347 15.2423
ltoes -16.1176
